Coordinates
version=1
nRows=21
nColumns=12
inDegrees=yes

Units are S.I. units (second, meters, Newtons, ...)
Angles are in degrees

endheader
time	SC_y	SC_z	SC_x	AC_y	AC_z	AC_x	GH_y	GH_z	GH_yy	EL_x	PS_y
       0.0              -51.62          10.35          19.81          44.47         -18.99         -19.16         -168.9         -16.85         -138.9          137.8          32.99
    0.0252              -51.61          10.35          19.81          44.48         -18.99         -19.16         -168.9         -16.85         -138.9          137.8           33.0
   0.05039              -51.61          10.35          19.81          44.48         -18.99         -19.16         -168.9         -16.85         -138.8          137.8          33.02
   0.07559               -51.6          10.34          19.82          44.48         -18.98         -19.16         -168.9         -16.84         -138.8          137.8          33.04
    0.1008              -51.59          10.34          19.82          44.49         -18.98         -19.15         -168.9         -16.84         -138.7          137.7          33.06
     0.126              -51.59          10.34          19.82          44.49         -18.97         -19.15         -168.9         -16.84         -138.7          137.7          33.07
    0.1512              -51.58          10.34          19.83           44.5         -18.97         -19.15         -168.9         -16.83         -138.6          137.7           33.1
    0.1764              -51.57          10.34          19.83           44.5         -18.96         -19.14         -168.9         -16.83         -138.6          137.7          33.12
    0.2016              -51.56          10.34          19.84          44.51         -18.96         -19.14         -168.8         -16.82         -138.5          137.7          33.14
    0.2268              -51.55          10.33          19.84          44.51         -18.95         -19.14         -168.8         -16.82         -138.4          137.7          33.17
     0.252              -51.54          10.33          19.85          44.52         -18.95         -19.13         -168.8         -16.82         -138.3          137.7          33.19
    0.2772              -51.53          10.33          19.85          44.52         -18.94         -19.13         -168.8         -16.81         -138.3          137.6          33.22
    0.3024              -51.52          10.33          19.86          44.53         -18.93         -19.13         -168.8         -16.81         -138.2          137.6          33.25
    0.3276              -51.51          10.32          19.87          44.54         -18.92         -19.12         -168.8          -16.8         -138.1          137.6          33.29
    0.3528              -51.49          10.32          19.88          44.55         -18.91         -19.12         -168.8         -16.79         -138.0          137.6          33.32
     0.378              -51.48          10.32          19.88          44.56          -18.9         -19.11         -168.8         -16.79         -137.8          137.6          33.36
    0.4032              -51.46          10.31          19.89          44.57         -18.89          -19.1         -168.8         -16.78         -137.7          137.5          33.41
    0.4284              -51.44          10.31           19.9          44.58         -18.88          -19.1         -168.8         -16.77         -137.6          137.5          33.46
    0.4535              -51.43          10.31          19.91          44.59         -18.87         -19.09         -168.7         -16.76         -137.4          137.5          33.51
    0.4787               -51.4           10.3          19.93           44.6         -18.86         -19.08         -168.7         -16.75         -137.3          137.5          33.56
    0.5039              -51.38           10.3          19.94          44.61         -18.84         -19.07         -168.7         -16.74         -137.1          137.4          33.63
